<svg xmlns="http://www.w3.org/2000/svg" fill="#067ee0" xmlns:xlink="http://www.w3.org/1999/xlink" version="1.1" x="0px"
    y="0px" viewBox="0 0 91 113.75" enable-background="new 0 0 91 91" xml:space="preserve">
    <g>
        <path
            d="M32.986,37.695c0,0,0.389-0.383,0.486-0.486c8.213-8.779,12.869-13.188,12.869-20.139c0-7.375-5.979-13.355-13.355-13.355   c-7.377,0-13.357,5.98-13.357,13.355c0,6.951,4.66,11.365,12.875,20.145C32.608,37.324,32.986,37.695,32.986,37.695z M32.986,6.996   c5.557,0,10.076,4.52,10.076,10.074c0,4.91-2.913,8.242-10.076,15.863C25.82,25.313,22.91,21.979,22.91,17.07   C22.91,11.516,27.43,6.996,32.986,6.996z" />
        <path
            d="M46.018,32.502c3.001,3.711,6.453,7.012,10.266,9.824c4.011-1.641,7.807-3.795,11.314-6.426   c-5.398-0.438-10.738-1.424-15.944-2.383C49.744,33.162,47.868,32.82,46.018,32.502z" />
        <path
            d="M65.129,77.084c0.274,0,0.534-0.008,0.797-0.018l6.231-12.824l7.511-0.701l-1.227-9.033   c-7.76-1.521-15.064-4.576-21.503-8.92c-6.302,2.484-13.072,3.799-20.05,3.799c-0.639,0-1.274-0.029-1.912-0.049l-7.28,11.531   l9.985-0.154l11.991,13.82l-0.06,0.049C55.379,75.938,60.764,77.084,65.129,77.084z" />
        <path
            d="M82.973,26.957l-3.301,0.508c-2.068,0.318-4.211,0.475-6.543,0.475c-6.525,0-13.371-1.266-19.989-2.488   c-1.715-0.314-3.448-0.635-5.188-0.936c-0.48,1.021-1.059,2.023-1.735,3.033c11.226,1.873,22.794,4.875,33.956,3.158l4.84,35.629   l-10.694,0.998c0,0-4.964,10.432-7.213,14.592c-15.022,1.104-37.752-11.293-60.613-6.316L16.4,29.965   c1.265-0.672,2.546-1.234,3.843-1.705c-0.673-0.949-1.261-1.887-1.767-2.834c-1.24,0.479-2.45,1.021-3.618,1.645l-1.342,0.715   L2.203,79.896l4.984-1.084c3.424-0.746,6.956-1.105,10.799-1.105c9.343,0,18.746,2.24,27.042,4.217   c7.253,1.729,14.105,3.361,20.105,3.361c1.179,0,2.315-0.063,3.377-0.189l0.911-0.109l19.377-15.145L82.973,26.957z" />
        <path
            d="M12.805,69.715c1.684-0.139,3.406-0.205,5.182-0.205c9.28,0,18.222,1.91,26.291,3.809l-8.074-9.301l-22.235,0.342   L12.805,69.715z" />
        <path d="M14.683,61.068l10.273-0.158l7.402-11.727c-4.951-0.404-9.769-1.469-14.405-3.182L14.683,61.068z" />
        <path
            d="M73.129,36.137c-0.199,0-0.398-0.01-0.596-0.012c-3.978,3.438-8.37,6.252-13.064,8.389   c5.66,3.602,11.973,6.199,18.65,7.602L75.938,36.07C75.022,36.115,74.088,36.137,73.129,36.137z" />
        <path
            d="M53.748,43.275c-4.145-3.219-7.855-7.004-11.014-11.266c-1.502,1.729-3.225,3.561-5.145,5.604l-4.599,4.688l-4.605-4.684   c-1.798-1.912-3.419-3.641-4.854-5.271c-0.975,0.283-1.917,0.621-2.834,1.014l-2.041,9.4c5.805,2.213,11.92,3.348,18.231,3.348   C42.719,46.107,48.396,45.133,53.748,43.275z" />
        <path
            d="M40.736,16.203c0-4.221-3.434-7.654-7.654-7.654s-7.654,3.434-7.654,7.654s3.434,7.656,7.654,7.656   S40.736,20.424,40.736,16.203z M27.923,16.203c0-2.844,2.314-5.158,5.159-5.158s5.159,2.314,5.159,5.158   c0,2.846-2.314,5.16-5.159,5.16S27.923,19.049,27.923,16.203z" />
    </g>
</svg>