<svg width="50" height="50" viewBox="0 0 50 50" fill="none" xmlns="http://www.w3.org/2000/svg">
<g clip-path="url(#clip0_1_1630)">
<path d="M30.8594 33.7891C30.3204 33.7891 29.8828 34.2266 29.8828 34.7656C29.8828 35.3046 30.3204 35.7422 30.8594 35.7422C31.3984 35.7422 31.8359 35.3046 31.8359 34.7656C31.8359 34.2266 31.3984 33.7891 30.8594 33.7891Z" fill="#9D53C3"/>
<path d="M45.1172 0H4.88281C2.1904 0 0 2.1904 0 4.88281V34.7656C0 37.458 2.1904 39.6484 4.88281 39.6484H20.1172V44.1406H19.1406C17.8368 44.1406 16.6111 44.6487 15.6883 45.5711C14.7659 46.4939 14.2578 47.7196 14.2578 49.0234C14.2578 49.5628 14.695 50 15.2344 50H34.7656C35.305 50 35.7422 49.5628 35.7422 49.0234C35.7422 46.331 33.5518 44.1406 30.8594 44.1406H29.8828V39.6484H45.1172C47.8096 39.6484 50 37.458 50 34.7656V4.88281C50 2.1904 47.8096 0 45.1172 0ZM4.88281 1.95312H45.1172C46.7327 1.95312 48.0469 3.26729 48.0469 4.88281V29.8828H43.5547V7.42188C43.5547 6.88248 43.1175 6.44531 42.5781 6.44531H34.7656C34.2262 6.44531 33.7891 6.88248 33.7891 7.42188V29.8828H28.9009C28.8906 28.8727 28.8643 27.877 28.8223 26.9112C28.6514 22.934 28.2619 20.2698 28.0594 19.0979C30.0743 17.6144 30.6244 14.8647 29.3926 12.7285L26.0078 6.86607C25.8331 6.56395 25.5108 6.37779 25.1621 6.37779C24.8131 6.37779 24.4907 6.56395 24.3164 6.86607L20.9301 12.7289C19.7689 14.743 20.1805 17.3519 22.0047 18.8915C21.7934 20.06 21.3669 22.8195 21.1815 26.9093C21.1376 27.8854 21.1098 28.8818 21.0991 29.8828H16.2109V15.2344C16.2109 15.0795 16.1743 14.9384 16.1144 14.8129C16.1118 14.8079 16.1102 14.8026 16.1079 14.7976L12.2017 6.98509C12.0361 6.65436 11.6982 6.44531 11.3281 6.44531C10.9581 6.44531 10.6201 6.65436 10.4546 6.98509L6.54831 14.7976C6.54602 14.8026 6.54449 14.8079 6.54221 14.8129C6.48117 14.9395 6.44531 15.0829 6.44531 15.2344V29.8828H1.95312V4.88281C1.95312 3.26729 3.26729 1.95312 4.88281 1.95312ZM35.7422 29.8828V8.39844H41.6016V10.3516H40.625C40.0856 10.3516 39.6484 10.7887 39.6484 11.3281C39.6484 11.8675 40.0856 12.3047 40.625 12.3047H41.6016V15.2344H40.625C40.0856 15.2344 39.6484 15.6715 39.6484 16.2109C39.6484 16.7503 40.0856 17.1875 40.625 17.1875H41.6016V20.1172H40.625C40.0856 20.1172 39.6484 20.5544 39.6484 21.0938C39.6484 21.6331 40.0856 22.0703 40.625 22.0703H41.6016V25.9766H40.625C40.0856 25.9766 39.6484 26.4137 39.6484 26.9531C39.6484 27.4925 40.0856 27.9297 40.625 27.9297H41.6016V29.8828H35.7422ZM25.1621 20.0497C25.5169 20.0497 25.8701 20.0089 26.2157 19.9326C26.3969 21.0941 26.6632 23.1495 26.8208 25.9766H23.1857C23.3509 23.1514 23.6298 21.064 23.8224 19.8631C24.255 19.9863 24.7055 20.0497 25.1621 20.0497ZM25.1621 18.0965C22.9301 18.0965 21.4909 15.6673 22.6219 13.7051L25.1621 9.30748L27.7008 13.7047C28.8277 15.659 27.4082 18.0965 25.1621 18.0965ZM23.0961 27.9297H26.9066C26.9272 28.5713 26.9413 29.224 26.9482 29.8828H23.0522C23.0595 29.2282 23.0743 28.5755 23.0961 27.9297ZM12.3047 29.8828V16.2109H14.2578V29.8828H12.3047ZM8.39844 29.8828V16.2109H10.3516V29.8828H8.39844ZM9.00192 14.2578L11.3281 9.60541L13.6543 14.2578H9.00192ZM33.6216 48.0469H16.3773C16.5207 47.6398 16.7549 47.2668 17.0692 46.9521C17.6231 46.3985 18.3586 46.0938 19.1406 46.0938H30.8594C32.1327 46.0938 33.2188 46.9101 33.6216 48.0469ZM27.9297 44.1406H22.0703V39.6484H27.9297V44.1406ZM45.1172 37.6953H4.88281C3.26729 37.6953 1.95312 36.3811 1.95312 34.7656V31.8359H48.0469V34.7656C48.0469 36.3811 46.7327 37.6953 45.1172 37.6953Z" fill="#9D53C3"/>
<path d="M26.9531 33.7891H21.0938C20.5544 33.7891 20.1172 34.2262 20.1172 34.7656C20.1172 35.305 20.5544 35.7422 21.0938 35.7422H26.9531C27.4925 35.7422 27.9297 35.305 27.9297 34.7656C27.9297 34.2262 27.4925 33.7891 26.9531 33.7891Z" fill="#9D53C3"/>
</g>
<defs>
<clipPath id="clip0_1_1630">
<rect width="50" height="50" fill="white"/>
</clipPath>
</defs>
</svg>
