<svg fill="#03011f" xmlns="http://www.w3.org/2000/svg" xmlns:xlink="http://www.w3.org/1999/xlink" version="1.1" x="0px"
    y="0px" viewBox="0 0 65 81.25" enable-background="new 0 0 65 65" xml:space="preserve">
    <g>
        <path
            d="M62.5,12.6H49V5.1c0-1.5-1.2-2.8-2.8-2.8H18.8c-1.5,0-2.8,1.2-2.8,2.8v7.5H2.5c-1.5,0-2.8,1.2-2.8,2.8v37.4   c0,1.5,1.2,2.8,2.8,2.8h21.7l-3.8,5.7h-4v1.5h32.3v-1.5h-4l-3.8-5.7h21.7c1.5,0,2.8-1.2,2.8-2.8V15.3C65.3,13.8,64,12.6,62.5,12.6z    M17.5,5.1c0-0.7,0.6-1.3,1.3-1.3h27.5c0.7,0,1.3,0.6,1.3,1.3v35h-30V5.1z M2.5,14.1H16v26h-4.1v1.5H16h33h4.1v-1.5H49v-26h13.5   c0.7,0,1.3,0.6,1.3,1.3v34H1.3v-34C1.3,14.7,1.8,14.1,2.5,14.1z M42.8,61.2H22.2l3.8-5.7H39L42.8,61.2z M62.5,54h-60   c-0.7,0-1.2-0.6-1.2-1.3v-1.9h62.5v1.9C63.8,53.4,63.2,54,62.5,54z" />
        <rect x="19.8" y="30.1" width="25" height="1.5" />
        <rect x="24.7" y="34.3" width="15.3" height="1.5" />
        <path d="M28.3,11.3v9.5l9.4-4.8L28.3,11.3z M29.8,13.8l4.6,2.3l-4.6,2.3V13.8z" />
        <path d="M42.1,7.1H22.9v18h19.2V7.1z M40.6,23.6H24.4v-15h16.2V23.6z" />
    </g>
</svg>