<svg xmlns="http://www.w3.org/2000/svg" fill="#9cbf01" data-name="Layer 1" viewBox="0 0 95 118.75" x="0px" y="0px">
    <path
        d="m83.47,16.54h-6.86V5.69c0-1.34-1.2-2.43-2.67-2.43h-25.98c-1.47,0-2.67,1.09-2.67,2.43v10.85H11.52c-2.59,0-4.69,2.25-4.69,5.01v57.3c0,2.76,2.1,5.01,4.69,5.01h26.9l-2.97,6c-.2.4-.18.88.06,1.26.24.38.65.61,1.1.61h21.75c.45,0,.87-.23,1.1-.61.24-.38.26-.86.06-1.26l-2.96-6h26.89c2.59,0,4.71-2.25,4.71-5.01V21.55c0-2.76-2.11-5.01-4.71-5.01ZM47.89,5.87s.04,0,.07,0h25.98s.05,0,.07,0v17.15s-.04,0-.07,0h-16.19c-.41,0-.8.19-1.04.52l-1.72,2.3v-1.53c0-.72-.58-1.3-1.3-1.3h-5.73s-.05,0-.07,0V5.87ZM11.52,19.14h33.77v4.05c0,1.34,1.2,2.43,2.67,2.43h4.43v4.14c0,.56.36,1.06.89,1.23.13.04.27.07.41.07.4,0,.79-.19,1.04-.52l3.67-4.92h15.54c1.47,0,2.67-1.09,2.67-2.43v-4.05h6.86c1.16,0,2.11,1.08,2.11,2.41v51.43H9.43V21.55c0-1.31.96-2.41,2.09-2.41Zm44.76,70h-17.57l2.61-5.28h12.36l2.6,5.28Zm27.19-7.87H11.52c-1.13,0-2.09-1.11-2.09-2.42v-3.27h76.15v3.27c0,1.33-.95,2.42-2.11,2.42Zm-31.22-2.89c0,.72-.58,1.3-1.3,1.3h-6.9c-.72,0-1.3-.58-1.3-1.3s.58-1.3,1.3-1.3h6.9c.72,0,1.3.58,1.3,1.3Zm-10.58-35.86c4.9,0,8.89-3.99,8.89-8.89s-3.99-8.89-8.89-8.89-8.89,3.99-8.89,8.89,3.99,8.89,8.89,8.89Zm0-15.19c3.47,0,6.29,2.82,6.29,6.29s-2.82,6.29-6.29,6.29-6.29-2.82-6.29-6.29,2.82-6.29,6.29-6.29Zm-13.68,35.27h10.12l-.06,4.6h0c0,.8.41,1.5,1.16,1.94.57.34,1.32.51,2.07.51s1.5-.17,2.09-.5c.78-.44,1.23-1.16,1.24-1.98l-.03-4.2h.08c.22,0,.34.05.47.12l5.83,3.12,5.12,2.82c.32.97,1.21,1.67,2.27,1.68h1.52s0,0,.01,0c1.31,0,2.4-1.07,2.43-2.4l.03-5.15c2.24-.17,4.01-2.03,4.01-4.31s-1.75-4.11-3.96-4.31l.03-5.14c0-1.34-1.08-2.43-2.4-2.44h-1.5s0,0-.01,0c-.65,0-1.26.25-1.72.71-.26.26-.45.58-.57.91l-1.34.69c-3.38-3.7-8.11-5.83-13.17-5.83-8.57,0-15.96,6.11-17.56,14.54-.22,1.15.09,2.32.83,3.22.74.9,1.84,1.41,3.02,1.41Zm15.46-2.6h-3.16c-.07-.09-.15-.2-.14-.35l.03-2.22c0-.35.4-.65.85-.65h.01l2.41.03v3.18Zm-1.48,2.93l.03,4c-.33.14-1.01.15-1.35.03l.06-4.06c.08,0,.17.01.25.01h1.01Zm4.38-2.13c-.1-.05-.2-.08-.3-.12v-4.09c.12-.05.24-.07.36-.13l5.94-2.97,3.7-1.91-.04,6.08-.06,8.34-3.76-2.07-5.84-3.12Zm17.39-1.95c0,.84-.6,1.55-1.39,1.71v-1.7s.02-1.72.02-1.72c.79.17,1.38.87,1.38,1.71Zm-3.97-2.94s0,.02,0,.02v2.88s-.07,9.3-.07,9.3h-1.17s.07-10.58.07-10.58l.06-7.99h1.16s-.04,6.37-.04,6.37Zm-33.08,2.54c1.37-7.2,7.68-12.42,15-12.42,4.09,0,7.93,1.61,10.78,4.46l-1.32.68-5.93,2.97s-.01,0-.02,0c-.14.07-.25.1-.45.1l-3.69-.05h-.05c-1.88,0-3.42,1.43-3.45,3.21l-.03,2.22c0,.13.02.26.04.39h-9.59c-.4,0-.76-.17-1.02-.47-.25-.3-.35-.69-.28-1.08Zm41.25-2.33c-.49-.53-.45-1.35.08-1.83l2.32-2.14c.53-.49,1.35-.45,1.83.08.49.53.45,1.35-.08,1.83l-2.32,2.14c-.25.23-.57.34-.88.34-.35,0-.7-.14-.96-.42Zm.08,7.36c-.53-.49-.56-1.31-.08-1.83.49-.53,1.31-.56,1.83-.08l2.32,2.14c.53.49.56,1.31.08,1.83-.26.28-.61.42-.96.42-.31,0-.63-.11-.88-.34l-2.32-2.14Zm-14.17-43.81l11.6-11.61c.51-.51,1.33-.51,1.84,0,.51.51.51,1.33,0,1.84l-11.6,11.61c-.25.25-.59.38-.92.38s-.67-.13-.92-.38c-.51-.51-.51-1.33,0-1.84Zm10.67-4.69c-1.92.52-3.07,2.49-2.58,4.42.43,1.61,1.9,2.67,3.5,2.67.31,0,.62-.04.94-.12.94-.25,1.72-.85,2.21-1.69.48-.83.61-1.8.36-2.72-.24-.93-.83-1.71-1.66-2.19-.84-.49-1.82-.62-2.76-.37Zm1.81,3.98c-.14.24-.36.41-.63.48-.54.14-1.11-.17-1.25-.7-.14-.54.19-1.1.74-1.25,0,0,0,0,0,0,.09-.02.17-.04.26-.04.18,0,.35.05.51.14.23.13.39.34.46.61.07.26.03.52-.1.76Zm-11.82-5.66c.56.33,1.18.49,1.81.49.32,0,.63-.04.95-.13,1.92-.51,3.08-2.49,2.58-4.42-.25-.93-.85-1.7-1.69-2.19-.84-.48-1.82-.61-2.75-.36-.94.25-1.72.85-2.2,1.69-.48.83-.61,1.8-.36,2.72.24.93.83,1.71,1.67,2.19Zm.95-3.61c.14-.24.36-.41.63-.48h0c.09-.03.18-.04.26-.04.18,0,.35.05.51.14.24.14.4.35.47.59.14.54-.19,1.1-.74,1.25-.26.07-.54.03-.78-.1-.23-.13-.39-.34-.46-.61-.07-.26-.03-.53.1-.76Zm14.46,47.9h2.9c.72,0,1.3.58,1.3,1.3s-.58,1.3-1.3,1.3h-2.9c-.72,0-1.3-.58-1.3-1.3s.58-1.3,1.3-1.3Z" />
</svg>