<svg width="50" height="50" viewBox="0 0 50 50" fill="none" xmlns="http://www.w3.org/2000/svg">
<g id="Icons/game-development">
<path id="Vector" d="M21.875 25.7812H28.125V27.3438H21.875V25.7812Z" fill="#FF9D00"/>
<path id="Vector_2" d="M24.2188 23.4375H25.7812V29.6875H24.2188V23.4375Z" fill="#FF9D00"/>
<path id="Vector_3" d="M44.5312 25.7812H46.0938V27.3438H44.5312V25.7812Z" fill="#FF9D00"/>
<path id="Vector_4" d="M38.2812 25.7812H39.8438V27.3438H38.2812V25.7812Z" fill="#FF9D00"/>
<path id="Vector_5" d="M41.4062 22.6562H42.9688V24.2188H41.4062V22.6562Z" fill="#FF9D00"/>
<path id="Vector_6" d="M41.4062 28.9062H42.9688V30.4688H41.4062V28.9062Z" fill="#FF9D00"/>
<path id="Vector_7" d="M7.20215 13.7695L3.68652 9.375L7.20215 4.98047L8.42209 5.95703L5.68771 9.375L8.42209 12.793L7.20215 13.7695Z" fill="#FF9D00"/>
<path id="Vector_8" d="M19.3596 13.7695L18.1396 12.793L20.8748 9.375L18.1396 5.95703L19.3596 4.98047L22.8745 9.375L19.3596 13.7695Z" fill="#FF9D00"/>
<path id="Vector_9" d="M9.95801 11.9848L15.4283 5.73633L16.604 6.76515L11.1337 13.014L9.95801 11.9848Z" fill="#FF9D00"/>
<path id="Vector_10" d="M6.25 34.375H3.125V31.25H4.6875V32.8125H6.25V34.375Z" fill="#FF9D00"/>
<path id="Vector_11" d="M47.6562 1.5625H2.34375C1.04942 1.5625 0 2.61192 0 3.90625V35.1562C0 36.4506 1.04942 37.5 2.34375 37.5H18.75V41.4062C18.75 42.7006 17.7006 43.75 16.4062 43.75H12.5V48.4375H37.5V43.75H33.5938C32.2994 43.75 31.25 42.7006 31.25 41.4062V37.5H47.6562C48.9506 37.5 50 36.4506 50 35.1562V3.90625C50 2.61192 48.9506 1.5625 47.6562 1.5625ZM35.9375 45.3125V46.875H14.0625V45.3125H35.9375ZM25 42.2203C26.2943 42.2203 27.3438 41.1709 27.3438 39.8766V37.5H29.6875V41.4062C29.6906 42.2543 29.9721 43.0779 30.489 43.75H19.511C20.0279 43.0779 20.3094 42.2543 20.3125 41.4062V37.5H22.6562V39.8766C22.6562 41.1709 23.7057 42.2203 25 42.2203ZM24.2188 39.8766V37.5H25.7812V39.8766C25.7812 40.308 25.4314 40.6578 25 40.6578C24.5686 40.6578 24.2188 40.308 24.2188 39.8766ZM48.4375 35.1562C48.4375 35.5877 48.0877 35.9375 47.6562 35.9375H2.34375C1.91231 35.9375 1.5625 35.5877 1.5625 35.1562V28.125H17.3439C17.9909 31.3053 20.5376 33.7536 23.7411 34.2743C26.9444 34.7954 30.1357 33.2802 31.757 30.4688H35.429C36.7382 32.745 39.1064 34.2087 41.7278 34.362C44.3493 34.5154 46.8716 33.3378 48.4375 31.2298V35.1562ZM42.1875 32.8125C39.8129 32.8182 37.6427 31.4701 36.5952 29.3392L36.3789 28.9062H30.8086L30.5923 29.3392C29.2221 32.1018 26.0418 33.4526 23.1026 32.5199C20.163 31.5868 18.3434 28.6499 18.8171 25.6023C19.2905 22.5552 21.9162 20.3091 25 20.3125H42.1875C45.6394 20.3125 48.4375 23.1106 48.4375 26.5625C48.4375 30.0144 45.6394 32.8125 42.1875 32.8125ZM48.4375 21.8952C46.9681 19.9184 44.6507 18.7523 42.1875 18.75H25C20.6871 18.7546 17.1921 22.2496 17.1875 26.5625H1.5625V3.90625C1.5625 3.47481 1.91231 3.125 2.34375 3.125H47.6562C48.0877 3.125 48.4375 3.47481 48.4375 3.90625V21.8952Z" fill="#FF9D00"/>
<path id="Vector_12" d="M32.0312 25.7812H35.1562V27.3438H32.0312V25.7812Z" fill="#FF9D00"/>
<path id="Vector_13" d="M23.4375 6.25H29.6875V7.8125H23.4375V6.25Z" fill="#FF9D00"/>
<path id="Vector_14" d="M32.8125 6.25H45.3125V7.8125H32.8125V6.25Z" fill="#FF9D00"/>
<path id="Vector_15" d="M34.375 9.375H45.3125V10.9375H34.375V9.375Z" fill="#FF9D00"/>
<path id="Vector_16" d="M25 9.375H31.25V10.9375H25V9.375Z" fill="#FF9D00"/>
<path id="Vector_17" d="M23.4375 12.5H39.0625V14.0625H23.4375V12.5Z" fill="#FF9D00"/>
<path id="Vector_18" d="M42.1875 12.5H45.3125V14.0625H42.1875V12.5Z" fill="#FF9D00"/>
<path id="Vector_19" d="M4.6875 15.625H12.5V17.1875H4.6875V15.625Z" fill="#FF9D00"/>
<path id="Vector_20" d="M15.625 15.625H30.4688V17.1875H15.625V15.625Z" fill="#FF9D00"/>
<path id="Vector_21" d="M32.8125 15.625H45.3125V17.1875H32.8125V15.625Z" fill="#FF9D00"/>
<path id="Vector_22" d="M4.6875 18.75H17.1875V20.3125H4.6875V18.75Z" fill="#FF9D00"/>
<path id="Vector_23" d="M4.6875 21.875H10.9375V23.4375H4.6875V21.875Z" fill="#FF9D00"/>
<path id="Vector_24" d="M12.5 21.875H15.625V23.4375H12.5V21.875Z" fill="#FF9D00"/>
</g>
</svg>
