<svg width="50" height="50" viewBox="0 0 50 50" fill="none" xmlns="http://www.w3.org/2000/svg">
<g id="Icons/promotion" clip-path="url(#clip0_1_1686)">
<path id="Vector" d="M13.3751 31.4682C13.8421 31.1988 14.0019 30.6011 13.7326 30.1342C13.4629 29.6676 12.8655 29.5074 12.3986 29.7767C11.9317 30.0464 11.7714 30.6442 12.0411 31.1107C12.3105 31.5776 12.9082 31.7379 13.3751 31.4682Z" fill="#A1C45A"/>
<path id="Vector_2" d="M9.37346 38.2083L14.2914 46.7269C15.3526 48.5672 17.7399 49.2485 19.6277 48.1571C21.4958 47.0775 22.1378 44.6907 21.0571 42.8211L18.1274 37.746L20.6646 36.2812C21.1315 36.0111 21.2917 35.4141 21.022 34.9472L19.7521 32.7476C19.9035 32.7182 20.8992 32.5229 38.4571 29.0786C40.6277 28.9608 41.9281 26.5869 40.8317 24.6891L37.5862 19.0677L39.6602 15.9263C39.864 15.6173 39.8762 15.2202 39.6911 14.8998L37.738 11.5169C37.553 11.1965 37.2017 11.0088 36.8336 11.0305L33.0765 11.256L29.4735 5.01514C28.9516 4.11105 28.0166 3.56364 26.9729 3.55067C26.9604 3.55029 26.9482 3.55029 26.9356 3.55029C25.927 3.55029 25.0114 4.05231 24.469 4.90108L11.7119 21.1525L3.41833 25.9407C0.156387 27.8232 -0.973526 32.0079 0.916275 35.2787C2.64281 38.2694 6.28279 39.4458 9.37346 38.2083ZM19.3661 43.798C19.9055 44.7311 19.5862 45.9251 18.6504 46.4656C17.7116 47.0085 16.5161 46.6751 15.9828 45.7508L11.1 37.2924L14.4829 35.3393C20.134 45.1286 19.2753 43.6412 19.3661 43.798ZM17.1509 36.0542L16.1743 34.3627L17.8657 33.3862L18.8423 35.0776L17.1509 36.0542ZM36.3483 13.0161L37.698 15.3537L36.4944 17.1764L34.1682 13.1469L36.3483 13.0161ZM26.1024 5.97186C26.3645 5.54309 26.7803 5.49884 26.9489 5.50342C27.1156 5.50533 27.531 5.55721 27.7817 5.99132L39.1403 25.6656C39.5103 26.3061 39.0606 27.1114 38.3186 27.1297C38.1855 27.1328 38.1241 27.1568 37.783 27.2205L25.7679 6.40941C26.02 6.08516 26.0525 6.05388 26.1024 5.97186ZM24.4682 8.06499L35.757 27.618L18.7198 30.9597L13.5395 21.9871L24.4682 8.06499ZM2.60771 34.3021C2.17894 33.5601 1.95235 32.7178 1.95235 31.8656C1.95235 30.1239 2.88847 28.5018 4.3949 27.6321L12.0064 23.2376L16.8892 31.6947L9.27771 36.0897C6.94579 37.4355 3.95392 36.6336 2.60771 34.3021Z" fill="#A1C45A"/>
<path id="Vector_3" d="M10.3498 32.0875C10.0801 31.6206 9.48274 31.4604 9.01582 31.7301L7.32438 32.7067C6.85823 32.976 6.2597 32.8154 5.99038 32.3492C5.72068 31.8823 5.1233 31.7221 4.65638 31.9918C4.18946 32.2615 4.02925 32.8589 4.29895 33.3258C5.1027 34.7182 6.89561 35.2091 8.30094 34.3981L9.99238 33.4215C10.4593 33.1518 10.6195 32.5548 10.3498 32.0875Z" fill="#A1C45A"/>
<path id="Vector_4" d="M48.549 5.63917L43.1074 8.66728C42.6362 8.92973 42.4665 9.52444 42.7289 9.99556C42.9906 10.4663 43.585 10.6368 44.0572 10.374L49.4985 7.34587C49.97 7.08342 50.1394 6.48871 49.8769 6.01759C49.6148 5.54609 49.0201 5.37672 48.549 5.63917Z" fill="#A1C45A"/>
<path id="Vector_5" d="M47.9775 15.7534L44.2044 14.7425C43.6833 14.6029 43.1477 14.9119 43.0081 15.433C42.8685 15.9541 43.1779 16.4893 43.699 16.6289L47.4725 17.6398C47.9966 17.7806 48.5295 17.4666 48.6684 16.9493C48.808 16.4282 48.4986 15.8927 47.9775 15.7534Z" fill="#A1C45A"/>
<path id="Vector_6" d="M38.4958 2.09119L37.4837 5.86469C37.3441 6.38577 37.6531 6.92097 38.1742 7.06097C38.6949 7.20021 39.2305 6.89198 39.3705 6.37051L40.3821 2.59702C40.5218 2.07593 40.2128 1.54035 39.6917 1.40073C39.171 1.26111 38.6354 1.5701 38.4958 2.09119Z" fill="#A1C45A"/>
</g>
<defs>
<clipPath id="clip0_1_1686">
<rect width="50" height="50" fill="white"/>
</clipPath>
</defs>
</svg>
