<svg width="50" height="50" viewBox="0 0 50 50" fill="none" xmlns="http://www.w3.org/2000/svg">
<g clip-path="url(#clip0_1_1639)">
<path d="M23.535 36.0815C23.1306 36.0815 22.8027 36.4094 22.8027 36.8138C22.8027 37.2182 23.1306 37.5461 23.535 37.5461H26.4661C26.8705 37.5461 27.1984 37.2182 27.1984 36.8138C27.1984 36.4094 26.8705 36.0815 26.4661 36.0815H23.535Z" fill="#152765"/>
<path d="M23.535 36.0815C23.1306 36.0815 22.8027 36.4094 22.8027 36.8138C22.8027 37.2182 23.1306 37.5461 23.535 37.5461H26.4661C26.8705 37.5461 27.1984 37.2182 27.1984 36.8138C27.1984 36.4094 26.8705 36.0815 26.4661 36.0815H23.535Z" fill="black" fill-opacity="0.2"/>
<path d="M48.0624 8.18504H41.7401V1.52824C41.7401 0.68552 41.0545 0 40.2117 0H9.78895C8.94623 0 8.26071 0.68552 8.26071 1.52824V8.18504H1.93842C0.880899 8.18504 0.0205078 9.04543 0.0205078 10.1029V38.4587C0.0205078 39.5163 0.880899 40.3766 1.93842 40.3766H17.694V42.8156C17.694 42.8197 17.694 42.8237 17.6941 42.8278C17.7343 45.2494 16.6311 47.6491 16.1744 48.5356H13.8488C13.4443 48.5356 13.1165 48.8635 13.1165 49.2679C13.1165 49.6723 13.4443 50.0002 13.8488 50.0002H36.1519C36.5564 50.0002 36.8842 49.6723 36.8842 49.2679C36.8842 48.8635 36.5564 48.5356 36.1519 48.5356H33.8256C33.3686 47.6508 32.2663 45.2582 32.3066 42.8278C32.3066 42.8237 32.3067 42.8197 32.3067 42.8156V40.3766H38.0026C38.407 40.3766 38.7349 40.0488 38.7349 39.6444C38.7349 39.2399 38.407 38.9121 38.0026 38.9121H1.93842C1.68847 38.9121 1.48509 38.7087 1.48509 38.4587V34.7157H48.5156V38.4587C48.5156 38.7087 48.3122 38.9121 48.0623 38.9121H41.4198C41.0154 38.9121 40.6875 39.2399 40.6875 39.6444C40.6875 40.0488 41.0154 40.3766 41.4198 40.3766H48.0623C49.1198 40.3766 49.9802 39.5163 49.9802 38.4587V10.1029C49.9802 9.04533 49.1199 8.18504 48.0624 8.18504ZM19.1585 42.8095V40.3766H30.8423V42.8095C30.806 45.0872 31.6164 47.2724 32.1956 48.5354H17.8052C18.3844 47.2724 19.1948 45.0872 19.1585 42.8095ZM3.79482 13.4923V33.251H1.48518V10.1029C1.48518 9.8529 1.68856 9.64952 1.93852 9.64952H8.26081V11.6718H5.56354C4.58823 11.6719 3.79482 12.4885 3.79482 13.4923ZM40.2755 33.251H9.72529V27.5554C9.72529 27.151 9.39742 26.8232 8.993 26.8232C8.58858 26.8232 8.26071 27.151 8.26071 27.5554V33.251H5.2594V13.4923C5.2594 13.2961 5.3958 13.1365 5.56345 13.1365H8.26071V24.1381C8.26071 24.5425 8.58858 24.8704 8.993 24.8704C9.39742 24.8704 9.72529 24.5425 9.72529 24.1381V1.52824C9.72529 1.49309 9.7538 1.46458 9.78895 1.46458H40.2117C40.2469 1.46458 40.2754 1.49309 40.2754 1.52824V33.251H40.2755ZM44.7413 33.251H41.74V13.1365H44.4372C44.6049 13.1365 44.7413 13.2961 44.7413 13.4923V33.251ZM48.5156 33.251H46.2059V13.4923C46.2059 12.4886 45.4125 11.6719 44.4372 11.6719H41.74V9.64961H48.0623C48.3122 9.64961 48.5156 9.85299 48.5156 10.1029V33.251Z" fill="#152765"/>
<path d="M48.0624 8.18504H41.7401V1.52824C41.7401 0.68552 41.0545 0 40.2117 0H9.78895C8.94623 0 8.26071 0.68552 8.26071 1.52824V8.18504H1.93842C0.880899 8.18504 0.0205078 9.04543 0.0205078 10.1029V38.4587C0.0205078 39.5163 0.880899 40.3766 1.93842 40.3766H17.694V42.8156C17.694 42.8197 17.694 42.8237 17.6941 42.8278C17.7343 45.2494 16.6311 47.6491 16.1744 48.5356H13.8488C13.4443 48.5356 13.1165 48.8635 13.1165 49.2679C13.1165 49.6723 13.4443 50.0002 13.8488 50.0002H36.1519C36.5564 50.0002 36.8842 49.6723 36.8842 49.2679C36.8842 48.8635 36.5564 48.5356 36.1519 48.5356H33.8256C33.3686 47.6508 32.2663 45.2582 32.3066 42.8278C32.3066 42.8237 32.3067 42.8197 32.3067 42.8156V40.3766H38.0026C38.407 40.3766 38.7349 40.0488 38.7349 39.6444C38.7349 39.2399 38.407 38.9121 38.0026 38.9121H1.93842C1.68847 38.9121 1.48509 38.7087 1.48509 38.4587V34.7157H48.5156V38.4587C48.5156 38.7087 48.3122 38.9121 48.0623 38.9121H41.4198C41.0154 38.9121 40.6875 39.2399 40.6875 39.6444C40.6875 40.0488 41.0154 40.3766 41.4198 40.3766H48.0623C49.1198 40.3766 49.9802 39.5163 49.9802 38.4587V10.1029C49.9802 9.04533 49.1199 8.18504 48.0624 8.18504ZM19.1585 42.8095V40.3766H30.8423V42.8095C30.806 45.0872 31.6164 47.2724 32.1956 48.5354H17.8052C18.3844 47.2724 19.1948 45.0872 19.1585 42.8095ZM3.79482 13.4923V33.251H1.48518V10.1029C1.48518 9.8529 1.68856 9.64952 1.93852 9.64952H8.26081V11.6718H5.56354C4.58823 11.6719 3.79482 12.4885 3.79482 13.4923ZM40.2755 33.251H9.72529V27.5554C9.72529 27.151 9.39742 26.8232 8.993 26.8232C8.58858 26.8232 8.26071 27.151 8.26071 27.5554V33.251H5.2594V13.4923C5.2594 13.2961 5.3958 13.1365 5.56345 13.1365H8.26071V24.1381C8.26071 24.5425 8.58858 24.8704 8.993 24.8704C9.39742 24.8704 9.72529 24.5425 9.72529 24.1381V1.52824C9.72529 1.49309 9.7538 1.46458 9.78895 1.46458H40.2117C40.2469 1.46458 40.2754 1.49309 40.2754 1.52824V33.251H40.2755ZM44.7413 33.251H41.74V13.1365H44.4372C44.6049 13.1365 44.7413 13.2961 44.7413 13.4923V33.251ZM48.5156 33.251H46.2059V13.4923C46.2059 12.4886 45.4125 11.6719 44.4372 11.6719H41.74V9.64961H48.0623C48.3122 9.64961 48.5156 9.85299 48.5156 10.1029V33.251Z" fill="black" fill-opacity="0.2"/>
<path d="M14.581 18.9438C15.5099 19.5372 16.554 19.8389 17.693 19.8404C18.6558 19.8404 19.5638 19.6289 20.3918 19.212C22.4397 18.1808 23.5675 16.4575 23.5675 14.3598V7.67212C23.5675 6.32714 22.4733 5.23291 21.1283 5.23291C19.7833 5.23291 18.689 6.32714 18.689 7.67212V14.3598C18.689 14.4759 18.689 14.6075 18.1977 14.8549C18.0526 14.9279 17.8923 14.9619 17.6908 14.9619C17.496 14.9617 17.347 14.9218 17.2074 14.8326C16.8071 14.5769 16.8071 14.4978 16.8071 14.3668V7.67212C16.8071 6.32714 15.7129 5.23291 14.3679 5.23291C13.0229 5.23291 11.9287 6.32714 11.9287 7.67212V14.3668C11.9287 16.2526 12.8458 17.8353 14.581 18.9438ZM13.3933 7.67212C13.3933 7.13471 13.8305 6.69749 14.3679 6.69749C14.9053 6.69749 15.3425 7.13471 15.3425 7.67212V14.3668C15.3425 15.0859 15.6544 15.5784 16.4188 16.0668C16.7913 16.3048 17.2186 16.4258 17.693 16.4265C18.1236 16.4265 18.5041 16.3403 18.8563 16.163C20.019 15.5773 20.1535 14.8533 20.1535 14.3598V7.67212C20.1535 7.13471 20.5907 6.69749 21.1281 6.69749C21.6655 6.69749 22.1027 7.13471 22.1027 7.67212V14.3598C22.1027 15.8977 21.2833 17.1232 19.733 17.9039C19.1111 18.2172 18.4248 18.3758 17.6862 18.3758C16.8391 18.3747 16.0595 18.1505 15.3693 17.7095C14.0396 16.86 13.3932 15.7666 13.3932 14.3668V7.67212H13.3933Z" fill="#152765"/>
<path d="M14.581 18.9438C15.5099 19.5372 16.554 19.8389 17.693 19.8404C18.6558 19.8404 19.5638 19.6289 20.3918 19.212C22.4397 18.1808 23.5675 16.4575 23.5675 14.3598V7.67212C23.5675 6.32714 22.4733 5.23291 21.1283 5.23291C19.7833 5.23291 18.689 6.32714 18.689 7.67212V14.3598C18.689 14.4759 18.689 14.6075 18.1977 14.8549C18.0526 14.9279 17.8923 14.9619 17.6908 14.9619C17.496 14.9617 17.347 14.9218 17.2074 14.8326C16.8071 14.5769 16.8071 14.4978 16.8071 14.3668V7.67212C16.8071 6.32714 15.7129 5.23291 14.3679 5.23291C13.0229 5.23291 11.9287 6.32714 11.9287 7.67212V14.3668C11.9287 16.2526 12.8458 17.8353 14.581 18.9438ZM13.3933 7.67212C13.3933 7.13471 13.8305 6.69749 14.3679 6.69749C14.9053 6.69749 15.3425 7.13471 15.3425 7.67212V14.3668C15.3425 15.0859 15.6544 15.5784 16.4188 16.0668C16.7913 16.3048 17.2186 16.4258 17.693 16.4265C18.1236 16.4265 18.5041 16.3403 18.8563 16.163C20.019 15.5773 20.1535 14.8533 20.1535 14.3598V7.67212C20.1535 7.13471 20.5907 6.69749 21.1281 6.69749C21.6655 6.69749 22.1027 7.13471 22.1027 7.67212V14.3598C22.1027 15.8977 21.2833 17.1232 19.733 17.9039C19.1111 18.2172 18.4248 18.3758 17.6862 18.3758C16.8391 18.3747 16.0595 18.1505 15.3693 17.7095C14.0396 16.86 13.3932 15.7666 13.3932 14.3668V7.67212H13.3933Z" fill="black" fill-opacity="0.2"/>
<path d="M37.5745 15.9951L34.6843 12.1869L37.0327 9.07239C37.425 8.55217 37.5912 7.9103 37.5007 7.265C37.4102 6.61981 37.0738 6.04843 36.5537 5.65621C36.0334 5.2638 35.3912 5.09772 34.7461 5.18813C34.1009 5.27864 33.5296 5.61511 33.1374 6.13523L31.6194 8.14853L30.0868 6.12908C29.2736 5.05788 27.7405 4.84776 26.6692 5.6607C25.5979 6.47384 25.3877 8.00696 26.2008 9.07834L28.5672 12.1964L25.828 15.8292C25.4357 16.3494 25.2695 16.9912 25.36 17.6365C25.4506 18.2818 25.7869 18.8531 26.307 19.2452C26.7336 19.567 27.241 19.7371 27.7744 19.7371C28.5477 19.7371 29.2582 19.3832 29.7232 18.7663L31.6319 16.235L33.6883 18.9445C34.1537 19.5576 34.8623 19.9092 35.6326 19.9092C36.1686 19.9092 36.6781 19.7376 37.106 19.4129C37.625 19.019 37.9596 18.4466 38.0481 17.8011C38.1366 17.1555 37.9685 16.5141 37.5745 15.9951ZM36.2208 18.2461C36.0498 18.3759 35.8464 18.4445 35.6328 18.4445C35.3245 18.4445 35.0411 18.304 34.8551 18.0589L32.2136 14.5783C32.0751 14.3958 31.8593 14.2887 31.6303 14.2887C31.6299 14.2887 31.6295 14.2887 31.6291 14.2887C31.3997 14.2891 31.1837 14.3969 31.0455 14.5801L28.554 17.8844C28.3682 18.1309 28.0841 18.2723 27.7745 18.2723C27.562 18.2723 27.3596 18.2043 27.189 18.0756C26.9811 17.9189 26.8468 17.6906 26.8107 17.4329C26.7745 17.175 26.8409 16.9185 26.9976 16.7107L30.0703 12.6358C30.2676 12.3741 30.2671 12.0133 30.069 11.7522L27.3676 8.19306C27.0427 7.76491 27.1267 7.15223 27.5548 6.82739C27.9829 6.50244 28.5956 6.58651 28.9204 7.01456L31.0381 9.80507C31.1766 9.98755 31.3923 10.0947 31.6214 10.0947H31.6226C31.852 10.0944 32.068 9.98648 32.2062 9.80331L34.3071 7.017C34.4639 6.80913 34.6921 6.67478 34.9499 6.63855C35.2078 6.60233 35.4642 6.66882 35.6721 6.82573C35.88 6.98244 36.0144 7.21071 36.0505 7.46848C36.0866 7.72634 36.0202 7.98284 35.8634 8.19062L33.1815 11.7475C32.9841 12.0092 32.9847 12.37 33.1828 12.6311L36.4079 16.8806C36.7328 17.3087 36.6488 17.9213 36.2208 18.2461Z" fill="#152765"/>
<path d="M37.5745 15.9951L34.6843 12.1869L37.0327 9.07239C37.425 8.55217 37.5912 7.9103 37.5007 7.265C37.4102 6.61981 37.0738 6.04843 36.5537 5.65621C36.0334 5.2638 35.3912 5.09772 34.7461 5.18813C34.1009 5.27864 33.5296 5.61511 33.1374 6.13523L31.6194 8.14853L30.0868 6.12908C29.2736 5.05788 27.7405 4.84776 26.6692 5.6607C25.5979 6.47384 25.3877 8.00696 26.2008 9.07834L28.5672 12.1964L25.828 15.8292C25.4357 16.3494 25.2695 16.9912 25.36 17.6365C25.4506 18.2818 25.7869 18.8531 26.307 19.2452C26.7336 19.567 27.241 19.7371 27.7744 19.7371C28.5477 19.7371 29.2582 19.3832 29.7232 18.7663L31.6319 16.235L33.6883 18.9445C34.1537 19.5576 34.8623 19.9092 35.6326 19.9092C36.1686 19.9092 36.6781 19.7376 37.106 19.4129C37.625 19.019 37.9596 18.4466 38.0481 17.8011C38.1366 17.1555 37.9685 16.5141 37.5745 15.9951ZM36.2208 18.2461C36.0498 18.3759 35.8464 18.4445 35.6328 18.4445C35.3245 18.4445 35.0411 18.304 34.8551 18.0589L32.2136 14.5783C32.0751 14.3958 31.8593 14.2887 31.6303 14.2887C31.6299 14.2887 31.6295 14.2887 31.6291 14.2887C31.3997 14.2891 31.1837 14.3969 31.0455 14.5801L28.554 17.8844C28.3682 18.1309 28.0841 18.2723 27.7745 18.2723C27.562 18.2723 27.3596 18.2043 27.189 18.0756C26.9811 17.9189 26.8468 17.6906 26.8107 17.4329C26.7745 17.175 26.8409 16.9185 26.9976 16.7107L30.0703 12.6358C30.2676 12.3741 30.2671 12.0133 30.069 11.7522L27.3676 8.19306C27.0427 7.76491 27.1267 7.15223 27.5548 6.82739C27.9829 6.50244 28.5956 6.58651 28.9204 7.01456L31.0381 9.80507C31.1766 9.98755 31.3923 10.0947 31.6214 10.0947H31.6226C31.852 10.0944 32.068 9.98648 32.2062 9.80331L34.3071 7.017C34.4639 6.80913 34.6921 6.67478 34.9499 6.63855C35.2078 6.60233 35.4642 6.66882 35.6721 6.82573C35.88 6.98244 36.0144 7.21071 36.0505 7.46848C36.0866 7.72634 36.0202 7.98284 35.8634 8.19062L33.1815 11.7475C32.9841 12.0092 32.9847 12.37 33.1828 12.6311L36.4079 16.8806C36.7328 17.3087 36.6488 17.9213 36.2208 18.2461Z" fill="black" fill-opacity="0.2"/>
<path d="M37.3386 22.1421H12.661C12.2566 22.1421 11.9287 22.47 11.9287 22.8744C11.9287 23.2788 12.2566 23.6067 12.661 23.6067H37.3386C37.743 23.6067 38.0708 23.2788 38.0708 22.8744C38.0708 22.47 37.7431 22.1421 37.3386 22.1421Z" fill="#152765"/>
<path d="M37.3386 22.1421H12.661C12.2566 22.1421 11.9287 22.47 11.9287 22.8744C11.9287 23.2788 12.2566 23.6067 12.661 23.6067H37.3386C37.743 23.6067 38.0708 23.2788 38.0708 22.8744C38.0708 22.47 37.7431 22.1421 37.3386 22.1421Z" fill="black" fill-opacity="0.2"/>
<path d="M37.3386 25.1143H12.661C12.2566 25.1143 11.9287 25.4421 11.9287 25.8465C11.9287 26.251 12.2566 26.5788 12.661 26.5788H37.3386C37.743 26.5788 38.0708 26.251 38.0708 25.8465C38.0708 25.4421 37.7431 25.1143 37.3386 25.1143Z" fill="#152765"/>
<path d="M37.3386 25.1143H12.661C12.2566 25.1143 11.9287 25.4421 11.9287 25.8465C11.9287 26.251 12.2566 26.5788 12.661 26.5788H37.3386C37.743 26.5788 38.0708 26.251 38.0708 25.8465C38.0708 25.4421 37.7431 25.1143 37.3386 25.1143Z" fill="black" fill-opacity="0.2"/>
<path d="M37.3386 28.0869H12.661C12.2566 28.0869 11.9287 28.4148 11.9287 28.8192C11.9287 29.2236 12.2566 29.5515 12.661 29.5515H37.3386C37.743 29.5515 38.0708 29.2236 38.0708 28.8192C38.0708 28.4148 37.7431 28.0869 37.3386 28.0869Z" fill="#152765"/>
<path d="M37.3386 28.0869H12.661C12.2566 28.0869 11.9287 28.4148 11.9287 28.8192C11.9287 29.2236 12.2566 29.5515 12.661 29.5515H37.3386C37.743 29.5515 38.0708 29.2236 38.0708 28.8192C38.0708 28.4148 37.7431 28.0869 37.3386 28.0869Z" fill="black" fill-opacity="0.2"/>
</g>
<defs>
<clipPath id="clip0_1_1639">
<rect width="50" height="50" fill="white"/>
</clipPath>
</defs>
</svg>
