<svg width="183" height="210" viewBox="0 0 183 210" fill="none" xmlns="http://www.w3.org/2000/svg">
    <path d="M2.71473 10.026V7.744H0.572734V6.652H2.71473V4.37H3.90473V6.652H6.03273V7.744H3.90473V10.026H2.71473Z"
        fill="#152765" />
    <path d="M2.71473 10.026V7.744H0.572734V6.652H2.71473V4.37H3.90473V6.652H6.03273V7.744H3.90473V10.026H2.71473Z"
        fill="black" fill-opacity="0.2" />
    <path d="M22.3143 10.026V7.744H20.1723V6.652H22.3143V4.37H23.5043V6.652H25.6323V7.744H23.5043V10.026H22.3143Z"
        fill="#152765" />
    <path d="M22.3143 10.026V7.744H20.1723V6.652H22.3143V4.37H23.5043V6.652H25.6323V7.744H23.5043V10.026H22.3143Z"
        fill="black" fill-opacity="0.2" />
    <path d="M41.914 10.026V7.744H39.772V6.652H41.914V4.37H43.104V6.652H45.232V7.744H43.104V10.026H41.914Z"
        fill="#152765" />
    <path d="M41.914 10.026V7.744H39.772V6.652H41.914V4.37H43.104V6.652H45.232V7.744H43.104V10.026H41.914Z" fill="black"
        fill-opacity="0.2" />
    <path d="M61.5136 10.026V7.744H59.3716V6.652H61.5136V4.37H62.7036V6.652H64.8316V7.744H62.7036V10.026H61.5136Z"
        fill="#152765" />
    <path d="M61.5136 10.026V7.744H59.3716V6.652H61.5136V4.37H62.7036V6.652H64.8316V7.744H62.7036V10.026H61.5136Z"
        fill="black" fill-opacity="0.2" />
    <path d="M81.1132 10.026V7.744H78.9712V6.652H81.1132V4.37H82.3032V6.652H84.4312V7.744H82.3032V10.026H81.1132Z"
        fill="#152765" />
    <path d="M81.1132 10.026V7.744H78.9712V6.652H81.1132V4.37H82.3032V6.652H84.4312V7.744H82.3032V10.026H81.1132Z"
        fill="black" fill-opacity="0.2" />
    <path d="M100.713 10.026V7.744H98.5708V6.652H100.713V4.37H101.903V6.652H104.031V7.744H101.903V10.026H100.713Z"
        fill="#152765" />
    <path d="M100.713 10.026V7.744H98.5708V6.652H100.713V4.37H101.903V6.652H104.031V7.744H101.903V10.026H100.713Z"
        fill="black" fill-opacity="0.2" />
    <path d="M120.312 10.026V7.744H118.17V6.652H120.312V4.37H121.502V6.652H123.63V7.744H121.502V10.026H120.312Z"
        fill="#152765" />
    <path d="M120.312 10.026V7.744H118.17V6.652H120.312V4.37H121.502V6.652H123.63V7.744H121.502V10.026H120.312Z"
        fill="black" fill-opacity="0.2" />
    <path d="M139.912 10.026V7.744H137.77V6.652H139.912V4.37H141.102V6.652H143.23V7.744H141.102V10.026H139.912Z"
        fill="#152765" />
    <path d="M139.912 10.026V7.744H137.77V6.652H139.912V4.37H141.102V6.652H143.23V7.744H141.102V10.026H139.912Z"
        fill="black" fill-opacity="0.2" />
    <path d="M159.512 10.026V7.744H157.37V6.652H159.512V4.37H160.702V6.652H162.83V7.744H160.702V10.026H159.512Z"
        fill="#152765" />
    <path d="M159.512 10.026V7.744H157.37V6.652H159.512V4.37H160.702V6.652H162.83V7.744H160.702V10.026H159.512Z"
        fill="black" fill-opacity="0.2" />
    <path d="M179.111 10.026V7.744H176.969V6.652H179.111V4.37H180.301V6.652H182.429V7.744H180.301V10.026H179.111Z"
        fill="#152765" />
    <path d="M179.111 10.026V7.744H176.969V6.652H179.111V4.37H180.301V6.652H182.429V7.744H180.301V10.026H179.111Z"
        fill="black" fill-opacity="0.2" />
    <path
        d="M2.71473 32.1822V29.9002H0.572734V28.8082H2.71473V26.5262H3.90473V28.8082H6.03273V29.9002H3.90473V32.1822H2.71473Z"
        fill="#152765" />
    <path
        d="M2.71473 32.1822V29.9002H0.572734V28.8082H2.71473V26.5262H3.90473V28.8082H6.03273V29.9002H3.90473V32.1822H2.71473Z"
        fill="black" fill-opacity="0.2" />
    <path
        d="M22.3143 32.1822V29.9002H20.1723V28.8082H22.3143V26.5262H23.5043V28.8082H25.6323V29.9002H23.5043V32.1822H22.3143Z"
        fill="#152765" />
    <path
        d="M22.3143 32.1822V29.9002H20.1723V28.8082H22.3143V26.5262H23.5043V28.8082H25.6323V29.9002H23.5043V32.1822H22.3143Z"
        fill="black" fill-opacity="0.2" />
    <path d="M41.914 32.1822V29.9002H39.772V28.8082H41.914V26.5262H43.104V28.8082H45.232V29.9002H43.104V32.1822H41.914Z"
        fill="#152765" />
    <path d="M41.914 32.1822V29.9002H39.772V28.8082H41.914V26.5262H43.104V28.8082H45.232V29.9002H43.104V32.1822H41.914Z"
        fill="black" fill-opacity="0.2" />
    <path
        d="M61.5136 32.1822V29.9002H59.3716V28.8082H61.5136V26.5262H62.7036V28.8082H64.8316V29.9002H62.7036V32.1822H61.5136Z"
        fill="#152765" />
    <path
        d="M61.5136 32.1822V29.9002H59.3716V28.8082H61.5136V26.5262H62.7036V28.8082H64.8316V29.9002H62.7036V32.1822H61.5136Z"
        fill="black" fill-opacity="0.2" />
    <path
        d="M81.1132 32.1822V29.9002H78.9712V28.8082H81.1132V26.5262H82.3032V28.8082H84.4312V29.9002H82.3032V32.1822H81.1132Z"
        fill="#152765" />
    <path
        d="M81.1132 32.1822V29.9002H78.9712V28.8082H81.1132V26.5262H82.3032V28.8082H84.4312V29.9002H82.3032V32.1822H81.1132Z"
        fill="black" fill-opacity="0.2" />
    <path
        d="M100.713 32.1822V29.9002H98.5708V28.8082H100.713V26.5262H101.903V28.8082H104.031V29.9002H101.903V32.1822H100.713Z"
        fill="#152765" />
    <path
        d="M100.713 32.1822V29.9002H98.5708V28.8082H100.713V26.5262H101.903V28.8082H104.031V29.9002H101.903V32.1822H100.713Z"
        fill="black" fill-opacity="0.2" />
    <path
        d="M120.312 32.1822V29.9002H118.17V28.8082H120.312V26.5262H121.502V28.8082H123.63V29.9002H121.502V32.1822H120.312Z"
        fill="#152765" />
    <path
        d="M120.312 32.1822V29.9002H118.17V28.8082H120.312V26.5262H121.502V28.8082H123.63V29.9002H121.502V32.1822H120.312Z"
        fill="black" fill-opacity="0.2" />
    <path
        d="M139.912 32.1822V29.9002H137.77V28.8082H139.912V26.5262H141.102V28.8082H143.23V29.9002H141.102V32.1822H139.912Z"
        fill="#152765" />
    <path
        d="M139.912 32.1822V29.9002H137.77V28.8082H139.912V26.5262H141.102V28.8082H143.23V29.9002H141.102V32.1822H139.912Z"
        fill="black" fill-opacity="0.2" />
    <path
        d="M159.512 32.1822V29.9002H157.37V28.8082H159.512V26.5262H160.702V28.8082H162.83V29.9002H160.702V32.1822H159.512Z"
        fill="#152765" />
    <path
        d="M159.512 32.1822V29.9002H157.37V28.8082H159.512V26.5262H160.702V28.8082H162.83V29.9002H160.702V32.1822H159.512Z"
        fill="black" fill-opacity="0.2" />
    <path
        d="M179.111 32.1822V29.9002H176.969V28.8082H179.111V26.5262H180.301V28.8082H182.429V29.9002H180.301V32.1822H179.111Z"
        fill="#152765" />
    <path
        d="M179.111 32.1822V29.9002H176.969V28.8082H179.111V26.5262H180.301V28.8082H182.429V29.9002H180.301V32.1822H179.111Z"
        fill="black" fill-opacity="0.2" />
    <path
        d="M2.71473 54.3385V52.0565H0.572734V50.9645H2.71473V48.6825H3.90473V50.9645H6.03273V52.0565H3.90473V54.3385H2.71473Z"
        fill="#152765" />
    <path
        d="M2.71473 54.3385V52.0565H0.572734V50.9645H2.71473V48.6825H3.90473V50.9645H6.03273V52.0565H3.90473V54.3385H2.71473Z"
        fill="black" fill-opacity="0.2" />
    <path
        d="M22.3143 54.3385V52.0565H20.1723V50.9645H22.3143V48.6825H23.5043V50.9645H25.6323V52.0565H23.5043V54.3385H22.3143Z"
        fill="#152765" />
    <path
        d="M22.3143 54.3385V52.0565H20.1723V50.9645H22.3143V48.6825H23.5043V50.9645H25.6323V52.0565H23.5043V54.3385H22.3143Z"
        fill="black" fill-opacity="0.2" />
    <path d="M41.914 54.3385V52.0565H39.772V50.9645H41.914V48.6825H43.104V50.9645H45.232V52.0565H43.104V54.3385H41.914Z"
        fill="#152765" />
    <path d="M41.914 54.3385V52.0565H39.772V50.9645H41.914V48.6825H43.104V50.9645H45.232V52.0565H43.104V54.3385H41.914Z"
        fill="black" fill-opacity="0.2" />
    <path
        d="M61.5136 54.3385V52.0565H59.3716V50.9645H61.5136V48.6825H62.7036V50.9645H64.8316V52.0565H62.7036V54.3385H61.5136Z"
        fill="#152765" />
    <path
        d="M61.5136 54.3385V52.0565H59.3716V50.9645H61.5136V48.6825H62.7036V50.9645H64.8316V52.0565H62.7036V54.3385H61.5136Z"
        fill="black" fill-opacity="0.2" />
    <path
        d="M81.1132 54.3385V52.0565H78.9712V50.9645H81.1132V48.6825H82.3032V50.9645H84.4312V52.0565H82.3032V54.3385H81.1132Z"
        fill="#152765" />
    <path
        d="M81.1132 54.3385V52.0565H78.9712V50.9645H81.1132V48.6825H82.3032V50.9645H84.4312V52.0565H82.3032V54.3385H81.1132Z"
        fill="black" fill-opacity="0.2" />
    <path
        d="M100.713 54.3385V52.0565H98.5708V50.9645H100.713V48.6825H101.903V50.9645H104.031V52.0565H101.903V54.3385H100.713Z"
        fill="#152765" />
    <path
        d="M100.713 54.3385V52.0565H98.5708V50.9645H100.713V48.6825H101.903V50.9645H104.031V52.0565H101.903V54.3385H100.713Z"
        fill="black" fill-opacity="0.2" />
    <path
        d="M120.312 54.3385V52.0565H118.17V50.9645H120.312V48.6825H121.502V50.9645H123.63V52.0565H121.502V54.3385H120.312Z"
        fill="#152765" />
    <path
        d="M120.312 54.3385V52.0565H118.17V50.9645H120.312V48.6825H121.502V50.9645H123.63V52.0565H121.502V54.3385H120.312Z"
        fill="black" fill-opacity="0.2" />
    <path
        d="M139.912 54.3385V52.0565H137.77V50.9645H139.912V48.6825H141.102V50.9645H143.23V52.0565H141.102V54.3385H139.912Z"
        fill="#152765" />
    <path
        d="M139.912 54.3385V52.0565H137.77V50.9645H139.912V48.6825H141.102V50.9645H143.23V52.0565H141.102V54.3385H139.912Z"
        fill="black" fill-opacity="0.2" />
    <path
        d="M159.512 54.3385V52.0565H157.37V50.9645H159.512V48.6825H160.702V50.9645H162.83V52.0565H160.702V54.3385H159.512Z"
        fill="#152765" />
    <path
        d="M159.512 54.3385V52.0565H157.37V50.9645H159.512V48.6825H160.702V50.9645H162.83V52.0565H160.702V54.3385H159.512Z"
        fill="black" fill-opacity="0.2" />
    <path
        d="M179.111 54.3385V52.0565H176.969V50.9645H179.111V48.6825H180.301V50.9645H182.429V52.0565H180.301V54.3385H179.111Z"
        fill="#152765" />
    <path
        d="M179.111 54.3385V52.0565H176.969V50.9645H179.111V48.6825H180.301V50.9645H182.429V52.0565H180.301V54.3385H179.111Z"
        fill="black" fill-opacity="0.2" />
    <path
        d="M2.71473 76.4947V74.2127H0.572734V73.1207H2.71473V70.8387H3.90473V73.1207H6.03273V74.2127H3.90473V76.4947H2.71473Z"
        fill="#152765" />
    <path
        d="M2.71473 76.4947V74.2127H0.572734V73.1207H2.71473V70.8387H3.90473V73.1207H6.03273V74.2127H3.90473V76.4947H2.71473Z"
        fill="black" fill-opacity="0.2" />
    <path
        d="M22.3143 76.4947V74.2127H20.1723V73.1207H22.3143V70.8387H23.5043V73.1207H25.6323V74.2127H23.5043V76.4947H22.3143Z"
        fill="#152765" />
    <path
        d="M22.3143 76.4947V74.2127H20.1723V73.1207H22.3143V70.8387H23.5043V73.1207H25.6323V74.2127H23.5043V76.4947H22.3143Z"
        fill="black" fill-opacity="0.2" />
    <path d="M41.914 76.4947V74.2127H39.772V73.1207H41.914V70.8387H43.104V73.1207H45.232V74.2127H43.104V76.4947H41.914Z"
        fill="#152765" />
    <path d="M41.914 76.4947V74.2127H39.772V73.1207H41.914V70.8387H43.104V73.1207H45.232V74.2127H43.104V76.4947H41.914Z"
        fill="black" fill-opacity="0.2" />
    <path
        d="M61.5136 76.4947V74.2127H59.3716V73.1207H61.5136V70.8387H62.7036V73.1207H64.8316V74.2127H62.7036V76.4947H61.5136Z"
        fill="#152765" />
    <path
        d="M61.5136 76.4947V74.2127H59.3716V73.1207H61.5136V70.8387H62.7036V73.1207H64.8316V74.2127H62.7036V76.4947H61.5136Z"
        fill="black" fill-opacity="0.2" />
    <path
        d="M81.1132 76.4947V74.2127H78.9712V73.1207H81.1132V70.8387H82.3032V73.1207H84.4312V74.2127H82.3032V76.4947H81.1132Z"
        fill="#152765" />
    <path
        d="M81.1132 76.4947V74.2127H78.9712V73.1207H81.1132V70.8387H82.3032V73.1207H84.4312V74.2127H82.3032V76.4947H81.1132Z"
        fill="black" fill-opacity="0.2" />
    <path
        d="M100.713 76.4947V74.2127H98.5708V73.1207H100.713V70.8387H101.903V73.1207H104.031V74.2127H101.903V76.4947H100.713Z"
        fill="#152765" />
    <path
        d="M100.713 76.4947V74.2127H98.5708V73.1207H100.713V70.8387H101.903V73.1207H104.031V74.2127H101.903V76.4947H100.713Z"
        fill="black" fill-opacity="0.2" />
    <path
        d="M120.312 76.4947V74.2127H118.17V73.1207H120.312V70.8387H121.502V73.1207H123.63V74.2127H121.502V76.4947H120.312Z"
        fill="#152765" />
    <path
        d="M120.312 76.4947V74.2127H118.17V73.1207H120.312V70.8387H121.502V73.1207H123.63V74.2127H121.502V76.4947H120.312Z"
        fill="black" fill-opacity="0.2" />
    <path
        d="M139.912 76.4947V74.2127H137.77V73.1207H139.912V70.8387H141.102V73.1207H143.23V74.2127H141.102V76.4947H139.912Z"
        fill="#152765" />
    <path
        d="M139.912 76.4947V74.2127H137.77V73.1207H139.912V70.8387H141.102V73.1207H143.23V74.2127H141.102V76.4947H139.912Z"
        fill="black" fill-opacity="0.2" />
    <path
        d="M159.512 76.4947V74.2127H157.37V73.1207H159.512V70.8387H160.702V73.1207H162.83V74.2127H160.702V76.4947H159.512Z"
        fill="#152765" />
    <path
        d="M159.512 76.4947V74.2127H157.37V73.1207H159.512V70.8387H160.702V73.1207H162.83V74.2127H160.702V76.4947H159.512Z"
        fill="black" fill-opacity="0.2" />
    <path
        d="M179.111 76.4947V74.2127H176.969V73.1207H179.111V70.8387H180.301V73.1207H182.429V74.2127H180.301V76.4947H179.111Z"
        fill="#152765" />
    <path
        d="M179.111 76.4947V74.2127H176.969V73.1207H179.111V70.8387H180.301V73.1207H182.429V74.2127H180.301V76.4947H179.111Z"
        fill="black" fill-opacity="0.2" />
    <path
        d="M2.71473 98.651V96.369H0.572734V95.277H2.71473V92.995H3.90473V95.277H6.03273V96.369H3.90473V98.651H2.71473Z"
        fill="#152765" />
    <path
        d="M2.71473 98.651V96.369H0.572734V95.277H2.71473V92.995H3.90473V95.277H6.03273V96.369H3.90473V98.651H2.71473Z"
        fill="black" fill-opacity="0.2" />
    <path d="M22.3143 98.651V96.369H20.1723V95.277H22.3143V92.995H23.5043V95.277H25.6323V96.369H23.5043V98.651H22.3143Z"
        fill="#152765" />
    <path d="M22.3143 98.651V96.369H20.1723V95.277H22.3143V92.995H23.5043V95.277H25.6323V96.369H23.5043V98.651H22.3143Z"
        fill="black" fill-opacity="0.2" />
    <path d="M41.914 98.651V96.369H39.772V95.277H41.914V92.995H43.104V95.277H45.232V96.369H43.104V98.651H41.914Z"
        fill="#152765" />
    <path d="M41.914 98.651V96.369H39.772V95.277H41.914V92.995H43.104V95.277H45.232V96.369H43.104V98.651H41.914Z"
        fill="black" fill-opacity="0.2" />
    <path d="M61.5136 98.651V96.369H59.3716V95.277H61.5136V92.995H62.7036V95.277H64.8316V96.369H62.7036V98.651H61.5136Z"
        fill="#152765" />
    <path d="M61.5136 98.651V96.369H59.3716V95.277H61.5136V92.995H62.7036V95.277H64.8316V96.369H62.7036V98.651H61.5136Z"
        fill="black" fill-opacity="0.2" />
    <path d="M81.1132 98.651V96.369H78.9712V95.277H81.1132V92.995H82.3032V95.277H84.4312V96.369H82.3032V98.651H81.1132Z"
        fill="#152765" />
    <path d="M81.1132 98.651V96.369H78.9712V95.277H81.1132V92.995H82.3032V95.277H84.4312V96.369H82.3032V98.651H81.1132Z"
        fill="black" fill-opacity="0.2" />
    <path d="M100.713 98.651V96.369H98.5708V95.277H100.713V92.995H101.903V95.277H104.031V96.369H101.903V98.651H100.713Z"
        fill="#152765" />
    <path d="M100.713 98.651V96.369H98.5708V95.277H100.713V92.995H101.903V95.277H104.031V96.369H101.903V98.651H100.713Z"
        fill="black" fill-opacity="0.2" />
    <path d="M120.312 98.651V96.369H118.17V95.277H120.312V92.995H121.502V95.277H123.63V96.369H121.502V98.651H120.312Z"
        fill="#152765" />
    <path d="M120.312 98.651V96.369H118.17V95.277H120.312V92.995H121.502V95.277H123.63V96.369H121.502V98.651H120.312Z"
        fill="black" fill-opacity="0.2" />
    <path d="M139.912 98.651V96.369H137.77V95.277H139.912V92.995H141.102V95.277H143.23V96.369H141.102V98.651H139.912Z"
        fill="#152765" />
    <path d="M139.912 98.651V96.369H137.77V95.277H139.912V92.995H141.102V95.277H143.23V96.369H141.102V98.651H139.912Z"
        fill="black" fill-opacity="0.2" />
    <path d="M159.512 98.651V96.369H157.37V95.277H159.512V92.995H160.702V95.277H162.83V96.369H160.702V98.651H159.512Z"
        fill="#152765" />
    <path d="M159.512 98.651V96.369H157.37V95.277H159.512V92.995H160.702V95.277H162.83V96.369H160.702V98.651H159.512Z"
        fill="black" fill-opacity="0.2" />
    <path d="M179.111 98.651V96.369H176.969V95.277H179.111V92.995H180.301V95.277H182.429V96.369H180.301V98.651H179.111Z"
        fill="#152765" />
    <path d="M179.111 98.651V96.369H176.969V95.277H179.111V92.995H180.301V95.277H182.429V96.369H180.301V98.651H179.111Z"
        fill="black" fill-opacity="0.2" />
    <path
        d="M2.71473 120.807V118.525H0.572734V117.433H2.71473V115.151H3.90473V117.433H6.03273V118.525H3.90473V120.807H2.71473Z"
        fill="#152765" />
    <path
        d="M2.71473 120.807V118.525H0.572734V117.433H2.71473V115.151H3.90473V117.433H6.03273V118.525H3.90473V120.807H2.71473Z"
        fill="black" fill-opacity="0.2" />
    <path
        d="M22.3143 120.807V118.525H20.1723V117.433H22.3143V115.151H23.5043V117.433H25.6323V118.525H23.5043V120.807H22.3143Z"
        fill="#152765" />
    <path
        d="M22.3143 120.807V118.525H20.1723V117.433H22.3143V115.151H23.5043V117.433H25.6323V118.525H23.5043V120.807H22.3143Z"
        fill="black" fill-opacity="0.2" />
    <path d="M41.914 120.807V118.525H39.772V117.433H41.914V115.151H43.104V117.433H45.232V118.525H43.104V120.807H41.914Z"
        fill="#152765" />
    <path d="M41.914 120.807V118.525H39.772V117.433H41.914V115.151H43.104V117.433H45.232V118.525H43.104V120.807H41.914Z"
        fill="black" fill-opacity="0.2" />
    <path
        d="M61.5136 120.807V118.525H59.3716V117.433H61.5136V115.151H62.7036V117.433H64.8316V118.525H62.7036V120.807H61.5136Z"
        fill="#152765" />
    <path
        d="M61.5136 120.807V118.525H59.3716V117.433H61.5136V115.151H62.7036V117.433H64.8316V118.525H62.7036V120.807H61.5136Z"
        fill="black" fill-opacity="0.2" />
    <path
        d="M81.1132 120.807V118.525H78.9712V117.433H81.1132V115.151H82.3032V117.433H84.4312V118.525H82.3032V120.807H81.1132Z"
        fill="#152765" />
    <path
        d="M81.1132 120.807V118.525H78.9712V117.433H81.1132V115.151H82.3032V117.433H84.4312V118.525H82.3032V120.807H81.1132Z"
        fill="black" fill-opacity="0.2" />
    <path
        d="M100.713 120.807V118.525H98.5708V117.433H100.713V115.151H101.903V117.433H104.031V118.525H101.903V120.807H100.713Z"
        fill="#152765" />
    <path
        d="M100.713 120.807V118.525H98.5708V117.433H100.713V115.151H101.903V117.433H104.031V118.525H101.903V120.807H100.713Z"
        fill="black" fill-opacity="0.2" />
    <path
        d="M120.312 120.807V118.525H118.17V117.433H120.312V115.151H121.502V117.433H123.63V118.525H121.502V120.807H120.312Z"
        fill="#152765" />
    <path
        d="M120.312 120.807V118.525H118.17V117.433H120.312V115.151H121.502V117.433H123.63V118.525H121.502V120.807H120.312Z"
        fill="black" fill-opacity="0.2" />
    <path
        d="M139.912 120.807V118.525H137.77V117.433H139.912V115.151H141.102V117.433H143.23V118.525H141.102V120.807H139.912Z"
        fill="#152765" />
    <path
        d="M139.912 120.807V118.525H137.77V117.433H139.912V115.151H141.102V117.433H143.23V118.525H141.102V120.807H139.912Z"
        fill="black" fill-opacity="0.2" />
    <path
        d="M159.512 120.807V118.525H157.37V117.433H159.512V115.151H160.702V117.433H162.83V118.525H160.702V120.807H159.512Z"
        fill="#152765" />
    <path
        d="M159.512 120.807V118.525H157.37V117.433H159.512V115.151H160.702V117.433H162.83V118.525H160.702V120.807H159.512Z"
        fill="black" fill-opacity="0.2" />
    <path
        d="M179.111 120.807V118.525H176.969V117.433H179.111V115.151H180.301V117.433H182.429V118.525H180.301V120.807H179.111Z"
        fill="#152765" />
    <path
        d="M179.111 120.807V118.525H176.969V117.433H179.111V115.151H180.301V117.433H182.429V118.525H180.301V120.807H179.111Z"
        fill="black" fill-opacity="0.2" />
    <path
        d="M2.71473 142.963V140.681H0.572734V139.589H2.71473V137.307H3.90473V139.589H6.03273V140.681H3.90473V142.963H2.71473Z"
        fill="#152765" />
    <path
        d="M2.71473 142.963V140.681H0.572734V139.589H2.71473V137.307H3.90473V139.589H6.03273V140.681H3.90473V142.963H2.71473Z"
        fill="black" fill-opacity="0.2" />
    <path
        d="M2.71473 165.026V162.744H0.572734V161.652H2.71473V159.37H3.90473V161.652H6.03273V162.744H3.90473V165.026H2.71473Z"
        fill="#152765" />
    <path
        d="M2.71473 165.026V162.744H0.572734V161.652H2.71473V159.37H3.90473V161.652H6.03273V162.744H3.90473V165.026H2.71473Z"
        fill="black" fill-opacity="0.2" />
    <path
        d="M2.71473 187.088V184.806H0.572734V183.714H2.71473V181.432H3.90473V183.714H6.03273V184.806H3.90473V187.088H2.71473Z"
        fill="#152765" />
    <path
        d="M2.71473 187.088V184.806H0.572734V183.714H2.71473V181.432H3.90473V183.714H6.03273V184.806H3.90473V187.088H2.71473Z"
        fill="black" fill-opacity="0.2" />
    <path
        d="M2.71473 209.151V206.869H0.572734V205.777H2.71473V203.495H3.90473V205.777H6.03273V206.869H3.90473V209.151H2.71473Z"
        fill="#152765" />
    <path
        d="M2.71473 209.151V206.869H0.572734V205.777H2.71473V203.495H3.90473V205.777H6.03273V206.869H3.90473V209.151H2.71473Z"
        fill="black" fill-opacity="0.2" />
    <path
        d="M22.3143 142.963V140.681H20.1723V139.589H22.3143V137.307H23.5043V139.589H25.6323V140.681H23.5043V142.963H22.3143Z"
        fill="#152765" />
    <path
        d="M22.3143 142.963V140.681H20.1723V139.589H22.3143V137.307H23.5043V139.589H25.6323V140.681H23.5043V142.963H22.3143Z"
        fill="black" fill-opacity="0.2" />
    <path
        d="M22.3143 165.026V162.744H20.1723V161.652H22.3143V159.37H23.5043V161.652H25.6323V162.744H23.5043V165.026H22.3143Z"
        fill="#152765" />
    <path
        d="M22.3143 165.026V162.744H20.1723V161.652H22.3143V159.37H23.5043V161.652H25.6323V162.744H23.5043V165.026H22.3143Z"
        fill="black" fill-opacity="0.2" />
    <path
        d="M22.3143 187.088V184.806H20.1723V183.714H22.3143V181.432H23.5043V183.714H25.6323V184.806H23.5043V187.088H22.3143Z"
        fill="#152765" />
    <path
        d="M22.3143 187.088V184.806H20.1723V183.714H22.3143V181.432H23.5043V183.714H25.6323V184.806H23.5043V187.088H22.3143Z"
        fill="black" fill-opacity="0.2" />
    <path
        d="M22.3143 209.151V206.869H20.1723V205.777H22.3143V203.495H23.5043V205.777H25.6323V206.869H23.5043V209.151H22.3143Z"
        fill="#152765" />
    <path
        d="M22.3143 209.151V206.869H20.1723V205.777H22.3143V203.495H23.5043V205.777H25.6323V206.869H23.5043V209.151H22.3143Z"
        fill="black" fill-opacity="0.2" />
    <path d="M41.914 142.963V140.681H39.772V139.589H41.914V137.307H43.104V139.589H45.232V140.681H43.104V142.963H41.914Z"
        fill="#152765" />
    <path d="M41.914 142.963V140.681H39.772V139.589H41.914V137.307H43.104V139.589H45.232V140.681H43.104V142.963H41.914Z"
        fill="black" fill-opacity="0.2" />
    <path d="M41.914 165.026V162.744H39.772V161.652H41.914V159.37H43.104V161.652H45.232V162.744H43.104V165.026H41.914Z"
        fill="#152765" />
    <path d="M41.914 165.026V162.744H39.772V161.652H41.914V159.37H43.104V161.652H45.232V162.744H43.104V165.026H41.914Z"
        fill="black" fill-opacity="0.2" />
    <path d="M41.914 187.088V184.806H39.772V183.714H41.914V181.432H43.104V183.714H45.232V184.806H43.104V187.088H41.914Z"
        fill="#152765" />
    <path d="M41.914 187.088V184.806H39.772V183.714H41.914V181.432H43.104V183.714H45.232V184.806H43.104V187.088H41.914Z"
        fill="black" fill-opacity="0.2" />
    <path d="M41.914 209.151V206.869H39.772V205.777H41.914V203.495H43.104V205.777H45.232V206.869H43.104V209.151H41.914Z"
        fill="#152765" />
    <path d="M41.914 209.151V206.869H39.772V205.777H41.914V203.495H43.104V205.777H45.232V206.869H43.104V209.151H41.914Z"
        fill="black" fill-opacity="0.2" />
    <path
        d="M61.5136 142.963V140.681H59.3716V139.589H61.5136V137.307H62.7036V139.589H64.8316V140.681H62.7036V142.963H61.5136Z"
        fill="#152765" />
    <path
        d="M61.5136 142.963V140.681H59.3716V139.589H61.5136V137.307H62.7036V139.589H64.8316V140.681H62.7036V142.963H61.5136Z"
        fill="black" fill-opacity="0.2" />
    <path
        d="M61.5136 165.026V162.744H59.3716V161.652H61.5136V159.37H62.7036V161.652H64.8316V162.744H62.7036V165.026H61.5136Z"
        fill="#152765" />
    <path
        d="M61.5136 165.026V162.744H59.3716V161.652H61.5136V159.37H62.7036V161.652H64.8316V162.744H62.7036V165.026H61.5136Z"
        fill="black" fill-opacity="0.2" />
    <path
        d="M61.5136 187.088V184.806H59.3716V183.714H61.5136V181.432H62.7036V183.714H64.8316V184.806H62.7036V187.088H61.5136Z"
        fill="#152765" />
    <path
        d="M61.5136 187.088V184.806H59.3716V183.714H61.5136V181.432H62.7036V183.714H64.8316V184.806H62.7036V187.088H61.5136Z"
        fill="black" fill-opacity="0.2" />
    <path
        d="M61.5136 209.151V206.869H59.3716V205.777H61.5136V203.495H62.7036V205.777H64.8316V206.869H62.7036V209.151H61.5136Z"
        fill="#152765" />
    <path
        d="M61.5136 209.151V206.869H59.3716V205.777H61.5136V203.495H62.7036V205.777H64.8316V206.869H62.7036V209.151H61.5136Z"
        fill="black" fill-opacity="0.2" />
    <path
        d="M81.1132 142.963V140.681H78.9712V139.589H81.1132V137.307H82.3032V139.589H84.4312V140.681H82.3032V142.963H81.1132Z"
        fill="#152765" />
    <path
        d="M81.1132 142.963V140.681H78.9712V139.589H81.1132V137.307H82.3032V139.589H84.4312V140.681H82.3032V142.963H81.1132Z"
        fill="black" fill-opacity="0.2" />
    <path
        d="M81.1132 165.026V162.744H78.9712V161.652H81.1132V159.37H82.3032V161.652H84.4312V162.744H82.3032V165.026H81.1132Z"
        fill="#152765" />
    <path
        d="M81.1132 165.026V162.744H78.9712V161.652H81.1132V159.37H82.3032V161.652H84.4312V162.744H82.3032V165.026H81.1132Z"
        fill="black" fill-opacity="0.2" />
    <path
        d="M81.1132 187.088V184.806H78.9712V183.714H81.1132V181.432H82.3032V183.714H84.4312V184.806H82.3032V187.088H81.1132Z"
        fill="#152765" />
    <path
        d="M81.1132 187.088V184.806H78.9712V183.714H81.1132V181.432H82.3032V183.714H84.4312V184.806H82.3032V187.088H81.1132Z"
        fill="black" fill-opacity="0.2" />
    <path
        d="M81.1132 209.151V206.869H78.9712V205.777H81.1132V203.495H82.3032V205.777H84.4312V206.869H82.3032V209.151H81.1132Z"
        fill="#152765" />
    <path
        d="M81.1132 209.151V206.869H78.9712V205.777H81.1132V203.495H82.3032V205.777H84.4312V206.869H82.3032V209.151H81.1132Z"
        fill="black" fill-opacity="0.2" />
    <path
        d="M100.713 142.963V140.681H98.5708V139.589H100.713V137.307H101.903V139.589H104.031V140.681H101.903V142.963H100.713Z"
        fill="#152765" />
    <path
        d="M100.713 142.963V140.681H98.5708V139.589H100.713V137.307H101.903V139.589H104.031V140.681H101.903V142.963H100.713Z"
        fill="black" fill-opacity="0.2" />
    <path
        d="M100.713 165.026V162.744H98.5708V161.652H100.713V159.37H101.903V161.652H104.031V162.744H101.903V165.026H100.713Z"
        fill="#152765" />
    <path
        d="M100.713 165.026V162.744H98.5708V161.652H100.713V159.37H101.903V161.652H104.031V162.744H101.903V165.026H100.713Z"
        fill="black" fill-opacity="0.2" />
    <path
        d="M100.713 187.088V184.806H98.5708V183.714H100.713V181.432H101.903V183.714H104.031V184.806H101.903V187.088H100.713Z"
        fill="#152765" />
    <path
        d="M100.713 187.088V184.806H98.5708V183.714H100.713V181.432H101.903V183.714H104.031V184.806H101.903V187.088H100.713Z"
        fill="black" fill-opacity="0.2" />
    <path
        d="M100.713 209.151V206.869H98.5708V205.777H100.713V203.495H101.903V205.777H104.031V206.869H101.903V209.151H100.713Z"
        fill="#152765" />
    <path
        d="M100.713 209.151V206.869H98.5708V205.777H100.713V203.495H101.903V205.777H104.031V206.869H101.903V209.151H100.713Z"
        fill="black" fill-opacity="0.2" />
    <path
        d="M120.312 142.963V140.681H118.17V139.589H120.312V137.307H121.502V139.589H123.63V140.681H121.502V142.963H120.312Z"
        fill="#152765" />
    <path
        d="M120.312 142.963V140.681H118.17V139.589H120.312V137.307H121.502V139.589H123.63V140.681H121.502V142.963H120.312Z"
        fill="black" fill-opacity="0.2" />
    <path
        d="M120.312 165.026V162.744H118.17V161.652H120.312V159.37H121.502V161.652H123.63V162.744H121.502V165.026H120.312Z"
        fill="#152765" />
    <path
        d="M120.312 165.026V162.744H118.17V161.652H120.312V159.37H121.502V161.652H123.63V162.744H121.502V165.026H120.312Z"
        fill="black" fill-opacity="0.2" />
    <path
        d="M120.312 187.088V184.806H118.17V183.714H120.312V181.432H121.502V183.714H123.63V184.806H121.502V187.088H120.312Z"
        fill="#152765" />
    <path
        d="M120.312 187.088V184.806H118.17V183.714H120.312V181.432H121.502V183.714H123.63V184.806H121.502V187.088H120.312Z"
        fill="black" fill-opacity="0.2" />
    <path
        d="M120.312 209.151V206.869H118.17V205.777H120.312V203.495H121.502V205.777H123.63V206.869H121.502V209.151H120.312Z"
        fill="#152765" />
    <path
        d="M120.312 209.151V206.869H118.17V205.777H120.312V203.495H121.502V205.777H123.63V206.869H121.502V209.151H120.312Z"
        fill="black" fill-opacity="0.2" />
    <path
        d="M139.912 142.963V140.681H137.77V139.589H139.912V137.307H141.102V139.589H143.23V140.681H141.102V142.963H139.912Z"
        fill="#152765" />
    <path
        d="M139.912 142.963V140.681H137.77V139.589H139.912V137.307H141.102V139.589H143.23V140.681H141.102V142.963H139.912Z"
        fill="black" fill-opacity="0.2" />
    <path
        d="M139.912 165.026V162.744H137.77V161.652H139.912V159.37H141.102V161.652H143.23V162.744H141.102V165.026H139.912Z"
        fill="#152765" />
    <path
        d="M139.912 165.026V162.744H137.77V161.652H139.912V159.37H141.102V161.652H143.23V162.744H141.102V165.026H139.912Z"
        fill="black" fill-opacity="0.2" />
    <path
        d="M139.912 187.088V184.806H137.77V183.714H139.912V181.432H141.102V183.714H143.23V184.806H141.102V187.088H139.912Z"
        fill="#152765" />
    <path
        d="M139.912 187.088V184.806H137.77V183.714H139.912V181.432H141.102V183.714H143.23V184.806H141.102V187.088H139.912Z"
        fill="black" fill-opacity="0.2" />
    <path
        d="M139.912 209.151V206.869H137.77V205.777H139.912V203.495H141.102V205.777H143.23V206.869H141.102V209.151H139.912Z"
        fill="#152765" />
    <path
        d="M139.912 209.151V206.869H137.77V205.777H139.912V203.495H141.102V205.777H143.23V206.869H141.102V209.151H139.912Z"
        fill="black" fill-opacity="0.2" />
    <path
        d="M159.512 142.963V140.681H157.37V139.589H159.512V137.307H160.702V139.589H162.83V140.681H160.702V142.963H159.512Z"
        fill="#152765" />
    <path
        d="M159.512 142.963V140.681H157.37V139.589H159.512V137.307H160.702V139.589H162.83V140.681H160.702V142.963H159.512Z"
        fill="black" fill-opacity="0.2" />
    <path
        d="M159.512 165.026V162.744H157.37V161.652H159.512V159.37H160.702V161.652H162.83V162.744H160.702V165.026H159.512Z"
        fill="#152765" />
    <path
        d="M159.512 165.026V162.744H157.37V161.652H159.512V159.37H160.702V161.652H162.83V162.744H160.702V165.026H159.512Z"
        fill="black" fill-opacity="0.2" />
    <path
        d="M159.512 187.088V184.806H157.37V183.714H159.512V181.432H160.702V183.714H162.83V184.806H160.702V187.088H159.512Z"
        fill="#152765" />
    <path
        d="M159.512 187.088V184.806H157.37V183.714H159.512V181.432H160.702V183.714H162.83V184.806H160.702V187.088H159.512Z"
        fill="black" fill-opacity="0.2" />
    <path
        d="M159.512 209.151V206.869H157.37V205.777H159.512V203.495H160.702V205.777H162.83V206.869H160.702V209.151H159.512Z"
        fill="#152765" />
    <path
        d="M159.512 209.151V206.869H157.37V205.777H159.512V203.495H160.702V205.777H162.83V206.869H160.702V209.151H159.512Z"
        fill="black" fill-opacity="0.2" />
    <path
        d="M179.111 142.963V140.681H176.969V139.589H179.111V137.307H180.301V139.589H182.429V140.681H180.301V142.963H179.111Z"
        fill="#152765" />
    <path
        d="M179.111 142.963V140.681H176.969V139.589H179.111V137.307H180.301V139.589H182.429V140.681H180.301V142.963H179.111Z"
        fill="black" fill-opacity="0.2" />
    <path
        d="M179.111 165.026V162.744H176.969V161.652H179.111V159.37H180.301V161.652H182.429V162.744H180.301V165.026H179.111Z"
        fill="#152765" />
    <path
        d="M179.111 165.026V162.744H176.969V161.652H179.111V159.37H180.301V161.652H182.429V162.744H180.301V165.026H179.111Z"
        fill="black" fill-opacity="0.2" />
    <path
        d="M179.111 187.088V184.806H176.969V183.714H179.111V181.432H180.301V183.714H182.429V184.806H180.301V187.088H179.111Z"
        fill="#152765" />
    <path
        d="M179.111 187.088V184.806H176.969V183.714H179.111V181.432H180.301V183.714H182.429V184.806H180.301V187.088H179.111Z"
        fill="black" fill-opacity="0.2" />
    <path
        d="M179.111 209.151V206.869H176.969V205.777H179.111V203.495H180.301V205.777H182.429V206.869H180.301V209.151H179.111Z"
        fill="#152765" />
    <path
        d="M179.111 209.151V206.869H176.969V205.777H179.111V203.495H180.301V205.777H182.429V206.869H180.301V209.151H179.111Z"
        fill="black" fill-opacity="0.2" />
</svg>